<svg width="36" height="36" viewBox="0 0 36 36" fill="none" xmlns="http://www.w3.org/2000/svg">
<path d="M26.7152 8.235V9.345L21.4052 6.27C19.3952 5.115 16.5902 5.115 14.5952 6.27L9.28516 9.36V8.235C9.28516 4.86 11.1302 3 14.5052 3H21.4952C24.8702 3 26.7152 4.86 26.7152 8.235Z" fill="#0CAF60"/>
<path d="M26.76 11.9544L26.55 11.8494L24.51 10.6794L20.28 8.23438C18.99 7.48438 17.01 7.48438 15.72 8.23438L11.49 10.6644L9.45 11.8644L9.18 11.9994C6.555 13.7694 6.375 14.0994 6.375 16.9344V23.7144C6.375 26.5494 6.555 26.8794 9.24 28.6944L15.72 32.4294C16.365 32.8194 17.175 32.9844 18 32.9844C18.81 32.9844 19.635 32.8044 20.28 32.4294L26.82 28.6494C29.46 26.8794 29.625 26.5644 29.625 23.7144V16.9344C29.625 14.0994 29.445 13.7694 26.76 11.9544ZM22.185 20.2494L21.27 21.3744C21.12 21.5394 21.015 21.8544 21.03 22.0794L21.12 23.5194C21.18 24.4044 20.55 24.8544 19.725 24.5394L18.39 23.9994C18.18 23.9244 17.835 23.9244 17.625 23.9994L16.29 24.5244C15.465 24.8544 14.835 24.3894 14.895 23.5044L14.985 22.0644C15 21.8394 14.895 21.5244 14.745 21.3594L13.815 20.2494C13.245 19.5744 13.5 18.8244 14.355 18.5994L15.75 18.2394C15.975 18.1794 16.23 17.9694 16.35 17.7894L17.13 16.5894C17.61 15.8394 18.375 15.8394 18.87 16.5894L19.65 17.7894C19.77 17.9844 20.04 18.1794 20.25 18.2394L21.645 18.5994C22.5 18.8244 22.755 19.5744 22.185 20.2494Z" fill="#0CAF60"/>
</svg>
