<svg width="32" height="32" viewBox="0 0 32 32" fill="none" xmlns="http://www.w3.org/2000/svg">
<rect width="32" height="32" rx="8.72727" fill="#DA251D" fill-opacity="0.1"/>
<path d="M22 11.9867C19.78 11.7667 17.5467 11.6533 15.32 11.6533C14 11.6533 12.68 11.72 11.36 11.8533L10 11.9867" stroke="#DA251D" stroke-linecap="round" stroke-linejoin="round"/>
<path d="M13.667 11.313L13.8137 10.4397C13.9203 9.80634 14.0003 9.33301 15.127 9.33301H16.8737C18.0003 9.33301 18.087 9.83301 18.187 10.4463L18.3337 11.313" stroke="#DA251D" stroke-linecap="round" stroke-linejoin="round"/>
<path d="M20.5669 14.0928L20.1336 20.8061C20.0603 21.8528 20.0003 22.6661 18.1403 22.6661H13.8603C12.0003 22.6661 11.9403 21.8528 11.8669 20.8061L11.4336 14.0928" stroke="#DA251D" stroke-linecap="round" stroke-linejoin="round"/>
<path d="M14.8867 19H17.1067" stroke="#DA251D" stroke-linecap="round" stroke-linejoin="round"/>
<path d="M14.333 16.333H17.6663" stroke="#DA251D" stroke-linecap="round" stroke-linejoin="round"/>
</svg>
