<svg width="20" height="20" viewBox="0 0 20 20" fill="none" xmlns="http://www.w3.org/2000/svg">
<path fill-rule="evenodd" clip-rule="evenodd" d="M0.25 15C0.25 17.6234 2.37665 19.75 5 19.75L15 19.75C17.6234 19.75 19.75 17.6234 19.75 15L19.75 11C19.75 8.37665 17.6234 6.25 15 6.25L14.5 6.25C14.0858 6.25 13.75 6.58579 13.75 7C13.75 7.41421 14.0858 7.75 14.5 7.75L15 7.75C16.7949 7.75 18.25 9.20507 18.25 11L18.25 15C18.25 16.7949 16.7949 18.25 15 18.25L5 18.25C3.20507 18.25 1.75 16.7949 1.75 15L1.75 11C1.75 9.20507 3.20507 7.75 5 7.75L5.5 7.75C5.91421 7.75 6.25 7.41421 6.25 7C6.25 6.58579 5.91421 6.25 5.5 6.25L5 6.25C2.37665 6.25 0.25 8.37665 0.25 11L0.25 15ZM6.46967 10.5303C6.17678 10.2374 6.17678 9.76256 6.46967 9.46967C6.76256 9.17678 7.23744 9.17678 7.53033 9.46967L9.25 11.1893L9.25 1C9.25 0.585786 9.58579 0.25 10 0.25C10.4142 0.25 10.75 0.585786 10.75 1L10.75 11.1893L12.4697 9.46967C12.7626 9.17678 13.2374 9.17678 13.5303 9.46967C13.8232 9.76256 13.8232 10.2374 13.5303 10.5303L10.5303 13.5303C10.2374 13.8232 9.76256 13.8232 9.46967 13.5303L6.46967 10.5303Z" fill="#28303F"/>
</svg>
