<svg width="62" height="63" viewBox="0 0 62 63" fill="none" xmlns="http://www.w3.org/2000/svg">
<circle cx="31" cy="31.5" r="30.5" stroke="#0056D2" stroke-dasharray="6 6"/>
<path d="M35.0615 42.9093L24.2361 43.8742C22.7418 44.0081 21.4225 42.8982 21.2892 41.3979L19.8087 24.6586C19.6754 23.1583 20.7809 21.8336 22.2752 21.6998L33.1006 20.7349C34.5949 20.601 35.9142 21.7109 36.0475 23.2113L37.5266 39.9505C37.6599 41.4522 36.5558 42.7769 35.0615 42.9093Z" stroke="#0056D2" stroke-miterlimit="10"/>
<path d="M36.3377 44.3232L25.7039 42.0671C24.236 41.7562 23.2972 40.3074 23.6069 38.8336L27.0691 22.3913C27.3802 20.9175 28.8217 19.9749 30.2896 20.2873L40.9234 22.5433C42.3913 22.8543 43.3301 24.303 43.0204 25.7768L39.5596 42.2191C39.2486 43.6929 37.807 44.6355 36.3377 44.3232Z" fill="#0056D2"/>
<path d="M34.4269 27.0206L32.5049 36.148" stroke="#F7F7F7" stroke-width="2" stroke-miterlimit="10" stroke-linecap="round"/>
<path d="M38.0117 32.5492L28.9209 30.6194" stroke="#F7F7F7" stroke-width="2" stroke-miterlimit="10" stroke-linecap="round"/>
</svg>
