<svg width="132" height="100" viewBox="0 0 132 100" fill="none" xmlns="http://www.w3.org/2000/svg">
<rect width="132" height="100" rx="2" fill="#CDCDCE"/>
<path d="M70.0312 47.3281C70.0312 47.6887 69.888 48.0344 69.6331 48.2893C69.3782 48.5443 69.0324 48.6875 68.6719 48.6875C68.3113 48.6875 67.9656 48.5443 67.7107 48.2893C67.4557 48.0344 67.3125 47.6887 67.3125 47.3281C67.3125 46.9676 67.4557 46.6218 67.7107 46.3669C67.9656 46.112 68.3113 45.9688 68.6719 45.9688C69.0324 45.9688 69.3782 46.112 69.6331 46.3669C69.888 46.6218 70.0312 46.9676 70.0312 47.3281ZM77.2812 42.3438V56.8438V58.6562C77.2812 59.137 77.0903 59.598 76.7504 59.9379C76.4105 60.2778 75.9495 60.4688 75.4688 60.4688H55.5312C55.0505 60.4688 54.5895 60.2778 54.2496 59.9379C53.9097 59.598 53.7188 59.137 53.7188 58.6562V55.0312V42.3438C53.7188 41.863 53.9097 41.402 54.2496 41.0621C54.5895 40.7222 55.0505 40.5312 55.5312 40.5312H75.4688C75.9495 40.5312 76.4105 40.7222 76.7504 41.0621C77.0903 41.402 77.2812 41.863 77.2812 42.3438ZM75.4688 54.6574V42.3438H55.5312V52.8449L59.6887 48.6875C60.0299 48.3513 60.4897 48.1628 60.9688 48.1628C61.4478 48.1628 61.9076 48.3513 62.2488 48.6875L67.3125 53.7512L69.6574 51.4062C69.9986 51.07 70.4585 50.8816 70.9375 50.8816C71.4165 50.8816 71.8764 51.07 72.2176 51.4062L75.4688 54.6574Z" fill="#7C7E81"/>
</svg>
