<svg width="20" height="20" viewBox="0 0 20 20" fill="none" xmlns="http://www.w3.org/2000/svg">
<path d="M17.0834 11.2501C17.0834 15.1621 13.912 18.3334 10 18.3334C6.088 18.3334 2.91669 15.1621 2.91669 11.2501C2.91669 7.33806 6.088 4.16675 10 4.16675C13.912 4.16675 17.0834 7.33806 17.0834 11.2501Z" stroke="#5A5A5A" stroke-width="1.5"/>
<path d="M12.5 2.0118C11.7053 1.78703 10.8667 1.66675 10 1.66675C9.13331 1.66675 8.29472 1.78703 7.5 2.0118" stroke="#5A5A5A" stroke-width="1.5" stroke-linecap="round"/>
<path d="M11.25 11.6667C11.25 12.3571 10.6904 12.9167 10 12.9167C9.30964 12.9167 8.75 12.3571 8.75 11.6667C8.75 10.9764 9.30964 10.4167 10 10.4167C10.6904 10.4167 11.25 10.9764 11.25 11.6667Z" stroke="#5A5A5A" stroke-width="1.5"/>
<path d="M10 10V7.5" stroke="#5A5A5A" stroke-width="1.5" stroke-linecap="round" stroke-linejoin="round"/>
</svg>
