<svg width="20" height="20" viewBox="0 0 20 20" fill="none" xmlns="http://www.w3.org/2000/svg">
<path d="M17.5 8.33342V6.25008C17.5 4.40913 16.0076 2.91675 14.1667 2.91675H5.83333C3.99238 2.91675 2.5 4.40913 2.5 6.25008V15.0001C2.5 16.841 3.99238 18.3334 5.83333 18.3334H7.5M6.66667 1.66675V4.16675M13.3333 1.66675V4.16675M7.5 9.16675L8.96068 10.3353C9.30892 10.6139 9.81475 10.5689 10.1084 10.2333L12.5 7.50008M10 18.3334L12.5506 17.6063C12.6874 17.5673 12.8119 17.4941 12.9125 17.3935L17.0915 13.2145C17.6362 12.6698 17.6362 11.7867 17.0915 11.2419C16.5468 10.6972 15.6636 10.6972 15.1189 11.2419L10.9399 15.421C10.8394 15.5215 10.7661 15.646 10.7271 15.7828L10 18.3334Z" stroke="#5A5A5A" stroke-width="1.5" stroke-linecap="round" stroke-linejoin="round"/>
</svg>
