<svg width="36" height="36" viewBox="0 0 36 36" fill="none" xmlns="http://www.w3.org/2000/svg">
<path d="M19.0161 29.9364C19.4282 30.0323 19.4659 30.5721 19.0645 30.7059L16.6945 31.4859C10.7395 33.4059 7.60454 31.8009 5.66954 25.8459L3.74954 19.9209C1.82954 13.9659 3.41953 10.8159 9.37453 8.89586L10.6685 8.46733C11.0714 8.33391 11.4576 8.73576 11.3322 9.14119C11.1914 9.59643 11.0606 10.0847 10.9345 10.6059L9.46453 16.8909C7.81453 23.9559 10.2295 27.8559 17.2945 29.5359L19.0161 29.9364Z" fill="#DD9B00"/>
<path d="M25.7553 4.81477L23.2503 4.22977C18.2403 3.04477 15.2553 4.01977 13.5003 7.64977C13.0503 8.56477 12.6903 9.67477 12.3903 10.9498L10.9203 17.2348C9.45027 23.5048 11.3853 26.5948 17.6403 28.0798L20.1603 28.6798C21.0303 28.8898 21.8403 29.0248 22.5903 29.0848C27.2703 29.5348 29.7603 27.3448 31.0203 21.9298L32.4903 15.6598C33.9603 9.38977 32.0403 6.28477 25.7553 4.81477ZM22.9353 19.9948C22.8003 20.5048 22.3503 20.8348 21.8403 20.8348C21.7503 20.8348 21.6603 20.8198 21.5553 20.8048L17.1903 19.6948C16.5903 19.5448 16.2303 18.9298 16.3803 18.3298C16.5303 17.7298 17.1453 17.3698 17.7453 17.5198L22.1103 18.6298C22.7253 18.7798 23.0853 19.3948 22.9353 19.9948ZM27.3303 14.9248C27.1953 15.4348 26.7453 15.7648 26.2353 15.7648C26.1453 15.7648 26.0553 15.7498 25.9503 15.7348L18.6753 13.8898C18.0753 13.7398 17.7153 13.1248 17.8653 12.5248C18.0153 11.9248 18.6303 11.5648 19.2303 11.7148L26.5053 13.5598C27.1203 13.6948 27.4803 14.3098 27.3303 14.9248Z" fill="#DD9B00"/>
</svg>
