<svg width="36" height="36" viewBox="0 0 36 36" fill="none" xmlns="http://www.w3.org/2000/svg">
<path d="M26.2946 11.655C26.1896 11.64 26.0846 11.64 25.9796 11.655C23.6546 11.58 21.8096 9.675 21.8096 7.335C21.8096 4.95 23.7446 3 26.1446 3C28.5296 3 30.4796 4.935 30.4796 7.335C30.4646 9.675 28.6196 11.58 26.2946 11.655Z" fill="#ED6823"/>
<path d="M31.1854 22.0506C29.5054 23.1756 27.1504 23.5956 24.9754 23.3106C25.5454 22.0806 25.8454 20.7156 25.8604 19.2756C25.8604 17.7756 25.5304 16.3506 24.9004 15.1056C27.1204 14.8056 29.4754 15.2256 31.1704 16.3506C33.5404 17.9106 33.5404 20.4756 31.1854 22.0506Z" fill="#ED6823"/>
<path d="M9.66023 11.655C9.76523 11.64 9.87023 11.64 9.97523 11.655C12.3002 11.58 14.1452 9.675 14.1452 7.335C14.1452 4.935 12.2102 3 9.81023 3C7.42523 3 5.49023 4.935 5.49023 7.335C5.49023 9.675 7.33523 11.58 9.66023 11.655Z" fill="#ED6823"/>
<path d="M9.82469 19.2759C9.82469 20.7309 10.1397 22.1109 10.7097 23.3559C8.59469 23.5809 6.38969 23.1309 4.76969 22.0659C2.39969 20.4909 2.39969 17.9259 4.76969 16.3509C6.37469 15.2709 8.63969 14.8359 10.7697 15.0759C10.1547 16.3359 9.82469 17.7609 9.82469 19.2759Z" fill="#ED6823"/>
<path d="M18.1802 23.805C18.0602 23.79 17.9252 23.79 17.7902 23.805C15.0302 23.715 12.8252 21.45 12.8252 18.66C12.8402 15.81 15.1352 13.5 18.0002 13.5C20.8502 13.5 23.1602 15.81 23.1602 18.66C23.1452 21.45 20.9552 23.715 18.1802 23.805Z" fill="#ED6823"/>
<path d="M13.3052 26.9109C11.0402 28.4259 11.0402 30.9159 13.3052 32.4159C15.8852 34.1409 20.1152 34.1409 22.6952 32.4159C24.9602 30.9009 24.9602 28.4109 22.6952 26.9109C20.1302 25.1859 15.9002 25.1859 13.3052 26.9109Z" fill="#ED6823"/>
</svg>
