<svg width="36" height="36" viewBox="0 0 36 36" fill="none" xmlns="http://www.w3.org/2000/svg">
<path d="M25.2447 23.4602C26.2497 22.8002 27.5697 23.5202 27.5697 24.7202V26.6552C27.5697 28.5602 26.0847 30.6002 24.2997 31.2002L19.5147 32.7902C18.6747 33.0752 17.3097 33.0752 16.4847 32.7902L11.6997 31.2002C9.89969 30.6002 8.42969 28.5602 8.42969 26.6552V24.7052C8.42969 23.5202 9.74969 22.8002 10.7397 23.4452L13.8297 25.4552C15.0147 26.2502 16.5147 26.6402 18.0147 26.6402C19.5147 26.6402 21.0147 26.2502 22.1997 25.4552L25.2447 23.4602Z" fill="#3E84F4"/>
<path d="M29.9703 9.68984L20.9853 3.79484C19.3653 2.72984 16.6953 2.72984 15.0753 3.79484L6.04527 9.68984C3.15027 11.5648 3.15027 15.8098 6.04527 17.6998L8.44527 19.2598L15.0753 23.5798C16.6953 24.6448 19.3653 24.6448 20.9853 23.5798L27.5703 19.2598L29.6253 17.9098V22.4998C29.6253 23.1148 30.1353 23.6248 30.7503 23.6248C31.3653 23.6248 31.8753 23.1148 31.8753 22.4998V15.1198C32.4753 13.1848 31.8603 10.9348 29.9703 9.68984Z" fill="#3E84F4"/>
</svg>
